<?xml version="1.0" encoding="utf-8"?>
<!-- Generator: Adobe Illustrator 24.2.1, SVG Export Plug-In . SVG Version: 6.00 Build 0)  -->
<svg version="1.1" id="Layer_1" xmlns="http://www.w3.org/2000/svg" xmlns:xlink="http://www.w3.org/1999/xlink" x="0px" y="0px"
	 viewBox="0 0 1300 499" style="enable-background:new 0 0 1300 499;" xml:space="preserve">
<style type="text/css">
	.st0{opacity:0.15;fill-rule:evenodd;clip-rule:evenodd;fill:url(#Wave_2_);enable-background:new    ;}
	.st1{fill-rule:evenodd;clip-rule:evenodd;fill:url(#Wave_3_);}
	.st2{fill:#B0C600;stroke:url(#SVGID_1_);stroke-width:3;stroke-miterlimit:10;}
</style>
<desc>Created with Sketch.</desc>
<g id="Ressource">
	<g id="wave_background">
		<g id="Group-4">
			<linearGradient id="Wave_2_" gradientUnits="userSpaceOnUse" x1="0" y1="246.059" x2="1300" y2="246.059">
				<stop  offset="0" style="stop-color:#845051"/>
				<stop  offset="5.240607e-02" style="stop-color:#814E4F"/>
				<stop  offset="0.2765" style="stop-color:#784849"/>
				<stop  offset="0.6508" style="stop-color:#5E3738"/>
				<stop  offset="1" style="stop-color:#452425"/>
			</linearGradient>
			<path id="Wave" class="st0" d="M0,0h1300c-0.2,99.1-0.2,259,0,479.9c-360.6,42.3-321.1-40.2-650-29s-343.4,60.2-650,0
				C1,327.5,1,177.2,0,0z"/>
			
				<linearGradient id="Wave_3_" gradientUnits="userSpaceOnUse" x1="111.3773" y1="788.9957" x2="114.0115" y2="789.9268" gradientTransform="matrix(439.0415 -155.1758 155.1757 439.0417 -171331.2344 -328886.125)">
				<stop  offset="0" style="stop-color:#845051"/>
				<stop  offset="5.240607e-02" style="stop-color:#814E4F"/>
				<stop  offset="0.2765" style="stop-color:#784849"/>
				<stop  offset="0.6508" style="stop-color:#5E3738"/>
				<stop  offset="1" style="stop-color:#452425"/>
			</linearGradient>
			<path id="Wave_1_" class="st1" d="M1302,0H377.3H1c0,224,0,366.8,0,428.7c80.4-11.9,154.2-29.3,343.7-11.9s256.5,87,532,21
				c183.7-44,325.4-40.8,425.3,9.7V0z"/>
		</g>
	</g>
</g>
<linearGradient id="SVGID_1_" gradientUnits="userSpaceOnUse" x1="1.0007" y1="79.3809" x2="1302" y2="79.3809">
	<stop  offset="0" style="stop-color:#8BD2D5"/>
	<stop  offset="0.3286" style="stop-color:#DDD141"/>
	<stop  offset="0.684" style="stop-color:#DD8B5F"/>
	<stop  offset="1" style="stop-color:#A96569"/>
</linearGradient>
<line class="st2" x1="1" y1="79.4" x2="1302" y2="79.4"/>
</svg>
