<?xml version="1.0" encoding="utf-8"?>
<!-- Generator: Adobe Illustrator 24.2.1, SVG Export Plug-In . SVG Version: 6.00 Build 0)  -->
<svg version="1.1" id="Layer_1" xmlns="http://www.w3.org/2000/svg" xmlns:xlink="http://www.w3.org/1999/xlink" x="0px" y="0px"
	 viewBox="0 0 1294 140" style="enable-background:new 0 0 1294 140;" xml:space="preserve">
<style type="text/css">
	
		.st0{opacity:0.15;fill-rule:evenodd;clip-rule:evenodd;fill:#C4C4C4;stroke:url(#Wave_2_);stroke-miterlimit:10;enable-background:new    ;}
	.st1{fill:url(#Wave_3_);}
	.st2{fill:none;stroke:url(#SVGID_1_);stroke-width:3;stroke-miterlimit:10;}
</style>
<desc>Created with Sketch.</desc>
<g id="Ressource">
	<g id="wave_header">
		<g id="Group-4-Copy" transform="translate(-5.000000, 0.000000)">
			
				<linearGradient id="Wave_2_" gradientUnits="userSpaceOnUse" x1="4.4856" y1="74.5111" x2="1305.5038" y2="74.5111" gradientTransform="matrix(1 0 0 -1 -5 142)">
				<stop  offset="0" style="stop-color:#FFFFFF"/>
				<stop  offset="0.9517" style="stop-color:#000000"/>
			</linearGradient>
			<path id="Wave" class="st0" d="M0,0h1300c-0.2,26.7-0.2,69.7,0,129.1c-309,10.9-265-14.7-598.5-5.2S390.6,144.3,0,121.3
				C1,88.1,1,47.7,0,0z"/>
			
				<linearGradient id="Wave_3_" gradientUnits="userSpaceOnUse" x1="6" y1="79.4822" x2="1307" y2="79.4822" gradientTransform="matrix(1 0 0 -1 -5 142)">
				<stop  offset="0" style="stop-color:#845051"/>
				<stop  offset="0.2936" style="stop-color:#784849"/>
				<stop  offset="0.7252" style="stop-color:#5E3738"/>
				<stop  offset="1" style="stop-color:#452425"/>
			</linearGradient>
			<path id="Wave_1_" class="st1" d="M1302,0H377.3H1c0,60.1,0,98.5,0,115.1c80.4-3.2,154.2-7.9,343.7-3.2
				c189.5,4.7,256.5,23.4,532,5.6c183.7-11.8,325.4-10.9,425.3,2.6V0z"/>
		</g>
	</g>
</g>
<linearGradient id="SVGID_1_" gradientUnits="userSpaceOnUse" x1="-3.3" y1="952" x2="1297.7" y2="952" gradientTransform="matrix(1 0 0 1 0 -938)">
	<stop  offset="0" style="stop-color:#8BD2D5"/>
	<stop  offset="0.3286" style="stop-color:#DDD141"/>
	<stop  offset="0.684" style="stop-color:#DD8B5F"/>
	<stop  offset="1" style="stop-color:#A96569"/>
</linearGradient>
<line class="st2" x1="-3.3" y1="14" x2="1297.7" y2="14"/>
</svg>
